ffmpeg started on 2025-05-12 at 20:51:09
Report written to "D:\Convert\FFMetrics\reports\ssim_report-6.txt"
Log level: 32
Command line:
ffmpeg -hide_banner -nostdin -i "G:\\\xc0\xed\xe8\xec\xe5\\\xce\xed\xe3\xee\xe8\xed\xe3\xe8\\!_35_\xcb\xe5\xf2\xee_2024\\DreamCast-1\\\xcf\xf0\xe8\xea\xeb\xfe\xf7\xe5\xed\xe8\xff \xe2 \xe4\xf0\xf3\xe3\xee\xec \xec\xe8\xf0\xe5 - \xc2\xee\xf1\xef\xe8\xf2\xfb\xe2\xe0\xf2\xfc \xe4\xe5\xf2\xe5\xe9 \xe1\xf3\xe4\xf3\xf7\xe8 \xe0\xe2\xe0\xed\xf2\xfe\xf0\xe8\xf1\xf2\xee\xec\\[DC] Iseyuru - 07_Telegram_HEVC.mkv" -i "G:\\\xc0\xed\xe8\xec\xe5\\\xce\xed\xe3\xee\xe8\xed\xe3\xe8\\!_35_\xcb\xe5\xf2\xee_2024\\DreamCast-1\\\xcf\xf0\xe8\xea\xeb\xfe\xf7\xe5\xed\xe8\xff \xe2 \xe4\xf0\xf3\xe3\xee\xec \xec\xe8\xf0\xe5 - \xc2\xee\xf1\xef\xe8\xf2\xfb\xe2\xe0\xf2\xfc \xe4\xe5\xf2\xe5\xe9 \xe1\xf3\xe4\xf3\xf7\xe8 \xe0\xe2\xe0\xed\xf2\xfe\xf0\xe8\xf1\xf2\xee\xec\\[DC] Iseyuru - 07_Telegram.mp4" -lavfi "[0:v]settb=AVTB,setpts=PTS-STARTPTS,format=pix_fmts=yuv420p10,fps=24000/1001,scale=1920:1080:flags=bicubic[main];[1:v]settb=AVTB,setpts=PTS-STARTPTS,format=pix_fmts=yuv420p,fps=24000/1001,scale=1920:1080:flags=bicubic[ref];[main][ref]ssim=eof_action=endall:stats_file='D\\:/Convert/FFMetrics/logs/ssim_logfile-6.txt'" -f null -
Input #0, matroska,webm, from 'G:\Аниме\Онгоинги\!_35_Лето_2024\DreamCast-1\Приключения в другом мире - Воспитывать детей будучи авантюристом\[DC] Iseyuru - 07_Telegram_HEVC.mkv':
  Metadata:
    COMPATIBLE_BRANDS: isomiso2avc1mp41
    MAJOR_BRAND     : isom
    MINOR_VERSION   : 512
    ENCODER         : Lavf61.7.100
  Duration: 00:23:56.67, start: -0.021000, bitrate: 941 kb/s
  Stream #0:0: Video: hevc (Main 10), yuv420p10le(tv, bt709, progressive), 1920x1080 [SAR 1:1 DAR 16:9], 23.98 fps, 23.98 tbr, 1k tbn (default)
      Metadata:
        HANDLER_NAME    : VideoHandler
        VENDOR_ID       : [0][0][0][0]
        ENCODER         : Lavc61.19.100 libx265
        BPS             : 742876
        DURATION        : 00:23:56.559708333
        NUMBER_OF_FRAMES: 34443
        NUMBER_OF_BYTES : 133398202
        _STATISTICS_WRITING_APP: mkvpropedit v66.0.0 ('Josie') 64-bit
        _STATISTICS_WRITING_DATE_UTC: 2025-05-10 13:41:50
        _STATISTICS_TAGS: BPS DURATION NUMBER_OF_FRAMES NUMBER_OF_BYTES
  Stream #0:1: Audio: aac (LC), 48000 Hz, stereo, fltp (default)
      Metadata:
        HANDLER_NAME    : SoundHandler
        VENDOR_ID       : [0][0][0][0]
        ENCODER         : Lavc61.19.100 aac
        BPS             : 194678
        DURATION        : 00:23:56.672000000
        NUMBER_OF_FRAMES: 67345
        NUMBER_OF_BYTES : 34961098
        _STATISTICS_WRITING_APP: mkvpropedit v66.0.0 ('Josie') 64-bit
        _STATISTICS_WRITING_DATE_UTC: 2025-05-10 13:41:50
        _STATISTICS_TAGS: BPS DURATION NUMBER_OF_FRAMES NUMBER_OF_BYTES
Input #1, mov,mp4,m4a,3gp,3g2,mj2, from 'G:\Аниме\Онгоинги\!_35_Лето_2024\DreamCast-1\Приключения в другом мире - Воспитывать детей будучи авантюристом\[DC] Iseyuru - 07_Telegram.mp4':
  Metadata:
    major_brand     : isom
    minor_version   : 512
    compatible_brands: isomiso2avc1mp41
    encoder         : Lavf60.16.100
  Duration: 00:23:56.63, start: 0.000000, bitrate: 3706 kb/s
  Stream #1:0[0x1](und): Video: h264 (High) (avc1 / 0x31637661), yuv420p(tv, bt709, progressive), 1920x1080 [SAR 1:1 DAR 16:9], 3558 kb/s, 23.98 fps, 23.98 tbr, 24k tbn (default)
      Metadata:
        handler_name    : VideoHandler
        vendor_id       : [0][0][0][0]
        encoder         : Lavc60.31.102 h264_qsv
  Stream #1:1[0x2](und): Audio: aac (HE-AACv2) (mp4a / 0x6134706D), 48000 Hz, stereo, fltp, 144 kb/s (default)
      Metadata:
        handler_name    : SoundHandler
        vendor_id       : [0][0][0][0]
Stream mapping:
  Stream #0:0 (hevc) -> settb:default
  Stream #1:0 (h264) -> settb:default
  ssim:default -> Stream #0:0 (wrapped_avframe)
  Stream #0:1 -> #0:1 (aac (native) -> pcm_s16le (native))
Output #0, null, to 'pipe:':
  Metadata:
    COMPATIBLE_BRANDS: isomiso2avc1mp41
    MAJOR_BRAND     : isom
    MINOR_VERSION   : 512
    encoder         : Lavf61.7.100
  Stream #0:0: Video: wrapped_avframe, yuv420p10le(tv, bt709, progressive), 1920x1080 [SAR 1:1 DAR 16:9], q=2-31, 200 kb/s, 23.98 fps, 23.98 tbn
      Metadata:
        encoder         : Lavc61.19.100 wrapped_avframe
  Stream #0:1: Audio: pcm_s16le, 48000 Hz, stereo, s16, 1536 kb/s (default)
      Metadata:
        HANDLER_NAME    : SoundHandler
        VENDOR_ID       : [0][0][0][0]
        _STATISTICS_TAGS: BPS DURATION NUMBER_OF_FRAMES NUMBER_OF_BYTES
        BPS             : 194678
        DURATION        : 00:23:56.672000000
        NUMBER_OF_FRAMES: 67345
        NUMBER_OF_BYTES : 34961098
        _STATISTICS_WRITING_APP: mkvpropedit v66.0.0 ('Josie') 64-bit
        _STATISTICS_WRITING_DATE_UTC: 2025-05-10 13:41:50
        encoder         : Lavc61.19.100 pcm_s16le
frame=  168 fps=0.0 q=-0.0 size=N/A time=00:00:07.00 bitrate=N/A speed=13.3x    frame=  399 fps=383 q=-0.0 size=N/A time=00:00:16.64 bitrate=N/A speed=  16x    frame=  636 fps=409 q=-0.0 size=N/A time=00:00:26.52 bitrate=N/A speed=  17x    frame=  861 fps=416 q=-0.0 size=N/A time=00:00:35.91 bitrate=N/A speed=17.4x    frame= 1023 fps=396 q=-0.0 size=N/A time=00:00:42.66 bitrate=N/A speed=16.5x    frame= 1161 fps=374 q=-0.0 size=N/A time=00:00:48.42 bitrate=N/A speed=15.6x    frame= 1352 fps=374 q=-0.0 size=N/A time=00:00:56.38 bitrate=N/A speed=15.6x    frame= 1583 fps=383 q=-0.0 size=N/A time=00:01:06.02 bitrate=N/A speed=  16x    frame= 1775 fps=382 q=-0.0 size=N/A time=00:01:14.03 bitrate=N/A speed=15.9x    frame= 1956 fps=379 q=-0.0 size=N/A time=00:01:21.58 bitrate=N/A speed=15.8x    frame= 2144 fps=378 q=-0.0 size=N/A time=00:01:29.42 bitrate=N/A speed=15.8x    frame= 2359 fps=381 q=-0.0 size=N/A time=00:01:38.38 bitrate=N/A speed=15.9x    frame= 2540 fps=379 q=-0.0 size=N/A time=00:01:45.93 bitrate=N/A speed=15.8x    frame= 2762 fps=382 q=-0.0 size=N/A time=00:01:55.19 bitrate=N/A speed=  16x    frame= 3014 fps=389 q=-0.0 size=N/A time=00:02:05.70 bitrate=N/A speed=16.2x    frame= 3259 fps=395 q=-0.0 size=N/A time=00:02:15.92 bitrate=N/A speed=16.5x    frame= 3512 fps=400 q=-0.0 size=N/A time=00:02:26.47 bitrate=N/A speed=16.7x    frame= 3740 fps=403 q=-0.0 size=N/A time=00:02:35.98 bitrate=N/A speed=16.8x    frame= 3973 fps=406 q=-0.0 size=N/A time=00:02:45.70 bitrate=N/A speed=16.9x    frame= 4171 fps=405 q=-0.0 size=N/A time=00:02:53.96 bitrate=N/A speed=16.9x    frame= 4377 fps=404 q=-0.0 size=N/A time=00:03:02.55 bitrate=N/A speed=16.9x    frame= 4600 fps=405 q=-0.0 size=N/A time=00:03:11.85 bitrate=N/A speed=16.9x    frame= 4791 fps=404 q=-0.0 size=N/A time=00:03:19.82 bitrate=N/A speed=16.8x    frame= 5013 fps=405 q=-0.0 size=N/A time=00:03:29.08 bitrate=N/A speed=16.9x    frame= 5201 fps=403 q=-0.0 size=N/A time=00:03:36.92 bitrate=N/A speed=16.8x    frame= 5436 fps=405 q=-0.0 size=N/A time=00:03:46.72 bitrate=N/A speed=16.9x    frame= 5675 fps=407 q=-0.0 size=N/A time=00:03:56.69 bitrate=N/A speed=  17x    frame= 5924 fps=410 q=-0.0 size=N/A time=00:04:07.08 bitrate=N/A speed=17.1x    frame= 6143 fps=411 q=-0.0 size=N/A time=00:04:16.21 bitrate=N/A speed=17.1x    frame= 6343 fps=410 q=-0.0 size=N/A time=00:04:24.55 bitrate=N/A speed=17.1x    frame= 6575 fps=411 q=-0.0 size=N/A time=00:04:34.23 bitrate=N/A speed=17.1x    frame= 6823 fps=413 q=-0.0 size=N/A time=00:04:44.57 bitrate=N/A speed=17.2x    frame= 7080 fps=416 q=-0.0 size=N/A time=00:04:55.29 bitrate=N/A speed=17.3x    frame= 7313 fps=417 q=-0.0 size=N/A time=00:05:05.01 bitrate=N/A speed=17.4x    frame= 7554 fps=418 q=-0.0 size=N/A time=00:05:15.06 bitrate=N/A speed=17.4x    frame= 7813 fps=420 q=-0.0 size=N/A time=00:05:25.86 bitrate=N/A speed=17.5x    frame= 8038 fps=421 q=-0.0 size=N/A time=00:05:35.25 bitrate=N/A speed=17.6x    frame= 8262 fps=421 q=-0.0 size=N/A time=00:05:44.59 bitrate=N/A speed=17.6x    frame= 8474 fps=421 q=-0.0 size=N/A time=00:05:53.43 bitrate=N/A speed=17.6x    frame= 8687 fps=421 q=-0.0 size=N/A time=00:06:02.32 bitrate=N/A speed=17.5x    frame= 8909 fps=421 q=-0.0 size=N/A time=00:06:11.57 bitrate=N/A speed=17.6x    frame= 9135 fps=421 q=-0.0 size=N/A time=00:06:21.00 bitrate=N/A speed=17.6x    frame= 9378 fps=422 q=-0.0 size=N/A time=00:06:31.14 bitrate=N/A speed=17.6x    frame= 9616 fps=423 q=-0.0 size=N/A time=00:06:41.06 bitrate=N/A speed=17.7x    frame= 9829 fps=423 q=-0.0 size=N/A time=00:06:49.95 bitrate=N/A speed=17.7x    frame=10046 fps=423 q=-0.0 size=N/A time=00:06:59.00 bitrate=N/A speed=17.6x    frame=10269 fps=423 q=-0.0 size=N/A time=00:07:08.30 bitrate=N/A speed=17.7x    frame=10509 fps=424 q=-0.0 size=N/A time=00:07:18.31 bitrate=N/A speed=17.7x    frame=10718 fps=424 q=-0.0 size=N/A time=00:07:27.02 bitrate=N/A speed=17.7x    frame=10947 fps=424 q=-0.0 size=N/A time=00:07:36.58 bitrate=N/A speed=17.7x    frame=11183 fps=425 q=-0.0 size=N/A time=00:07:46.42 bitrate=N/A speed=17.7x    frame=11379 fps=424 q=-0.0 size=N/A time=00:07:54.59 bitrate=N/A speed=17.7x    frame=11606 fps=424 q=-0.0 size=N/A time=00:08:04.06 bitrate=N/A speed=17.7x    frame=11819 fps=424 q=-0.0 size=N/A time=00:08:12.95 bitrate=N/A speed=17.7x    frame=12048 fps=424 q=-0.0 size=N/A time=00:08:22.50 bitrate=N/A speed=17.7x    frame=12272 fps=425 q=-0.0 size=N/A time=00:08:31.84 bitrate=N/A speed=17.7x    frame=12521 fps=425 q=-0.0 size=N/A time=00:08:42.23 bitrate=N/A speed=17.7x    frame=12716 fps=425 q=-0.0 size=N/A time=00:08:50.36 bitrate=N/A speed=17.7x    frame=12954 fps=425 q=-0.0 size=N/A time=00:09:00.28 bitrate=N/A speed=17.7x    frame=13155 fps=425 q=-0.0 size=N/A time=00:09:08.67 bitrate=N/A speed=17.7x    frame=13393 fps=425 q=-0.0 size=N/A time=00:09:18.59 bitrate=N/A speed=17.7x    frame=13632 fps=426 q=-0.0 size=N/A time=00:09:28.56 bitrate=N/A speed=17.8x    frame=13856 fps=426 q=-0.0 size=N/A time=00:09:37.91 bitrate=N/A speed=17.8x    frame=14041 fps=425 q=-0.0 size=N/A time=00:09:45.62 bitrate=N/A speed=17.7x    frame=14292 fps=426 q=-0.0 size=N/A time=00:09:56.09 bitrate=N/A speed=17.8x    frame=14539 fps=427 q=-0.0 size=N/A time=00:10:06.39 bitrate=N/A speed=17.8x    frame=14792 fps=428 q=-0.0 size=N/A time=00:10:16.94 bitrate=N/A speed=17.8x    frame=15026 fps=428 q=-0.0 size=N/A time=00:10:26.70 bitrate=N/A speed=17.9x    frame=15293 fps=429 q=-0.0 size=N/A time=00:10:37.84 bitrate=N/A speed=17.9x    frame=15517 fps=429 q=-0.0 size=N/A time=00:10:47.18 bitrate=N/A speed=17.9x    frame=15745 fps=430 q=-0.0 size=N/A time=00:10:56.69 bitrate=N/A speed=17.9x    frame=15998 fps=431 q=-0.0 size=N/A time=00:11:07.24 bitrate=N/A speed=  18x    frame=16229 fps=431 q=-0.0 size=N/A time=00:11:16.88 bitrate=N/A speed=  18x    frame=16438 fps=430 q=-0.0 size=N/A time=00:11:25.60 bitrate=N/A speed=17.9x    frame=16639 fps=430 q=-0.0 size=N/A time=00:11:33.98 bitrate=N/A speed=17.9x    frame=16863 fps=430 q=-0.0 size=N/A time=00:11:43.32 bitrate=N/A speed=17.9x    frame=17107 fps=430 q=-0.0 size=N/A time=00:11:53.50 bitrate=N/A speed=  18x    frame=17353 fps=431 q=-0.0 size=N/A time=00:12:03.76 bitrate=N/A speed=  18x    frame=17622 fps=432 q=-0.0 size=N/A time=00:12:14.98 bitrate=N/A speed=  18x    frame=17896 fps=433 q=-0.0 size=N/A time=00:12:26.41 bitrate=N/A speed=18.1x    frame=18126 fps=434 q=-0.0 size=N/A time=00:12:36.00 bitrate=N/A speed=18.1x    frame=18351 fps=434 q=-0.0 size=N/A time=00:12:45.38 bitrate=N/A speed=18.1x    frame=18555 fps=433 q=-0.0 size=N/A time=00:12:53.89 bitrate=N/A speed=18.1x    frame=18774 fps=433 q=-0.0 size=N/A time=00:13:03.03 bitrate=N/A speed=18.1x    frame=18956 fps=432 q=-0.0 size=N/A time=00:13:10.62 bitrate=N/A speed=  18x    frame=19181 fps=432 q=-0.0 size=N/A time=00:13:20.00 bitrate=N/A speed=  18x    frame=19400 fps=432 q=-0.0 size=N/A time=00:13:29.14 bitrate=N/A speed=  18x    frame=19612 fps=432 q=-0.0 size=N/A time=00:13:37.98 bitrate=N/A speed=  18x    frame=19844 fps=432 q=-0.0 size=N/A time=00:13:47.66 bitrate=N/A speed=  18x    frame=20076 fps=432 q=-0.0 size=N/A time=00:13:57.33 bitrate=N/A speed=  18x    frame=20303 fps=432 q=-0.0 size=N/A time=00:14:06.80 bitrate=N/A speed=  18x    frame=20534 fps=432 q=-0.0 size=N/A time=00:14:16.43 bitrate=N/A speed=  18x    frame=20772 fps=433 q=-0.0 size=N/A time=00:14:26.36 bitrate=N/A speed=  18x    frame=20980 fps=432 q=-0.0 size=N/A time=00:14:35.04 bitrate=N/A speed=  18x    frame=21119 fps=431 q=-0.0 size=N/A time=00:14:40.83 bitrate=N/A speed=  18x    frame=21300 fps=430 q=-0.0 size=N/A time=00:14:48.38 bitrate=N/A speed=17.9x    frame=21516 fps=430 q=-0.0 size=N/A time=00:14:57.39 bitrate=N/A speed=17.9x    frame=21768 fps=430 q=-0.0 size=N/A time=00:15:07.90 bitrate=N/A speed=17.9x    frame=22016 fps=431 q=-0.0 size=N/A time=00:15:18.25 bitrate=N/A speed=  18x    frame=22251 fps=431 q=-0.0 size=N/A time=00:15:28.05 bitrate=N/A speed=  18x    frame=22484 fps=431 q=-0.0 size=N/A time=00:15:37.77 bitrate=N/A speed=  18x    frame=22730 fps=432 q=-0.0 size=N/A time=00:15:48.07 bitrate=N/A speed=  18x    frame=22986 fps=432 q=-0.0 size=N/A time=00:15:58.70 bitrate=N/A speed=  18x    frame=23221 fps=433 q=-0.0 size=N/A time=00:16:08.50 bitrate=N/A speed=  18x    frame=23449 fps=433 q=-0.0 size=N/A time=00:16:18.01 bitrate=N/A speed=  18x    frame=23719 fps=434 q=-0.0 size=N/A time=00:16:29.27 bitrate=N/A speed=18.1x    frame=23968 fps=434 q=-0.0 size=N/A time=00:16:39.66 bitrate=N/A speed=18.1x    frame=24251 fps=435 q=-0.0 size=N/A time=00:16:51.46 bitrate=N/A speed=18.1x    frame=24526 fps=436 q=-0.0 size=N/A time=00:17:02.93 bitrate=N/A speed=18.2x    frame=24756 fps=436 q=-0.0 size=N/A time=00:17:12.53 bitrate=N/A speed=18.2x    frame=25019 fps=437 q=-0.0 size=N/A time=00:17:23.50 bitrate=N/A speed=18.2x    frame=25291 fps=438 q=-0.0 size=N/A time=00:17:34.84 bitrate=N/A speed=18.2x    frame=25552 fps=438 q=-0.0 size=N/A time=00:17:45.73 bitrate=N/A speed=18.3x    frame=25785 fps=438 q=-0.0 size=N/A time=00:17:55.44 bitrate=N/A speed=18.3x    frame=26025 fps=439 q=-0.0 size=N/A time=00:18:05.45 bitrate=N/A speed=18.3x    frame=26274 fps=439 q=-0.0 size=N/A time=00:18:15.84 bitrate=N/A speed=18.3x    frame=26540 fps=440 q=-0.0 size=N/A time=00:18:26.93 bitrate=N/A speed=18.3x    frame=26791 fps=440 q=-0.0 size=N/A time=00:18:37.40 bitrate=N/A speed=18.3x    frame=27046 fps=440 q=-0.0 size=N/A time=00:18:48.04 bitrate=N/A speed=18.4x    frame=27297 fps=441 q=-0.0 size=N/A time=00:18:58.51 bitrate=N/A speed=18.4x    frame=27535 fps=441 q=-0.0 size=N/A time=00:19:08.43 bitrate=N/A speed=18.4x    frame=27800 fps=442 q=-0.0 size=N/A time=00:19:19.49 bitrate=N/A speed=18.4x    frame=28066 fps=442 q=-0.0 size=N/A time=00:19:30.58 bitrate=N/A speed=18.4x    frame=28315 fps=443 q=-0.0 size=N/A time=00:19:40.97 bitrate=N/A speed=18.5x    frame=28570 fps=443 q=-0.0 size=N/A time=00:19:51.60 bitrate=N/A speed=18.5x    frame=28807 fps=443 q=-0.0 size=N/A time=00:20:01.49 bitrate=N/A speed=18.5x    frame=29057 fps=443 q=-0.0 size=N/A time=00:20:11.91 bitrate=N/A speed=18.5x    frame=29310 fps=444 q=-0.0 size=N/A time=00:20:22.47 bitrate=N/A speed=18.5x    frame=29580 fps=444 q=-0.0 size=N/A time=00:20:33.73 bitrate=N/A speed=18.5x    frame=29812 fps=444 q=-0.0 size=N/A time=00:20:43.40 bitrate=N/A speed=18.5x    frame=30042 fps=444 q=-0.0 size=N/A time=00:20:53.00 bitrate=N/A speed=18.5x    frame=30241 fps=444 q=-0.0 size=N/A time=00:21:01.30 bitrate=N/A speed=18.5x    frame=30429 fps=443 q=-0.0 size=N/A time=00:21:09.14 bitrate=N/A speed=18.5x    frame=30622 fps=443 q=-0.0 size=N/A time=00:21:17.19 bitrate=N/A speed=18.5x    frame=30855 fps=443 q=-0.0 size=N/A time=00:21:26.91 bitrate=N/A speed=18.5x    frame=31068 fps=443 q=-0.0 size=N/A time=00:21:35.79 bitrate=N/A speed=18.5x    frame=31315 fps=443 q=-0.0 size=N/A time=00:21:46.09 bitrate=N/A speed=18.5x    frame=31542 fps=443 q=-0.0 size=N/A time=00:21:55.56 bitrate=N/A speed=18.5x    frame=31788 fps=443 q=-0.0 size=N/A time=00:22:05.82 bitrate=N/A speed=18.5x    frame=32010 fps=443 q=-0.0 size=N/A time=00:22:15.08 bitrate=N/A speed=18.5x    frame=32208 fps=443 q=-0.0 size=N/A time=00:22:23.34 bitrate=N/A speed=18.5x    frame=32440 fps=443 q=-0.0 size=N/A time=00:22:33.01 bitrate=N/A speed=18.5x    frame=32692 fps=443 q=-0.0 size=N/A time=00:22:43.52 bitrate=N/A speed=18.5x    frame=32908 fps=443 q=-0.0 size=N/A time=00:22:52.53 bitrate=N/A speed=18.5x    frame=33124 fps=443 q=-0.0 size=N/A time=00:23:01.54 bitrate=N/A speed=18.5x    frame=33342 fps=443 q=-0.0 size=N/A time=00:23:10.63 bitrate=N/A speed=18.5x    frame=33538 fps=442 q=-0.0 size=N/A time=00:23:18.81 bitrate=N/A speed=18.4x    frame=33760 fps=442 q=-0.0 size=N/A time=00:23:28.07 bitrate=N/A speed=18.4x    frame=33930 fps=441 q=-0.0 size=N/A time=00:23:35.16 bitrate=N/A speed=18.4x    frame=34147 fps=441 q=-0.0 size=N/A time=00:23:44.21 bitrate=N/A speed=18.4x    frame=34337 fps=441 q=-0.0 size=N/A time=00:23:52.13 bitrate=N/A speed=18.4x    [Parsed_ssim_10 @ 0000028a0b055e80] SSIM Y:0.995428 (23.398595) U:0.993576 (21.921824) V:0.993589 (21.931076) All:0.994813 (22.850540)
[out#0/null @ 0000028a08df43c0] video:14800KiB audio:269380KiB subtitle:0KiB other streams:0KiB global headers:0KiB muxing overhead: unknown
frame=34443 fps=441 q=-0.0 Lsize=N/A time=00:23:56.56 bitrate=N/A speed=18.4x    
